HIERARCHY
ROOT Hips
{
	OFFSET -0.179506 -22.333345 2.821913
	CHANNELS 6 Xposition Yposition Zposition Zrotation Yrotation Xrotation 
	JOINT LeftUpLeg
	{
		OFFSET 6.951974 -9.140623 -0.681533
		CHANNELS 3 Zrotation Yrotation Xrotation
		JOINT LeftLeg
		{
			OFFSET 3.427654 -37.519855 -0.449580
			CHANNELS 3 Zrotation Yrotation Xrotation
			JOINT LeftFoot
			{
				OFFSET -1.359570 -39.796059 -4.369333
				CHANNELS 3 Zrotation Yrotation Xrotation
				JOINT LeftToe
				{
					OFFSET 2.635814 -5.579078 11.928840
					CHANNELS 3 Zrotation Yrotation Xrotation
					End Site
					{
						OFFSET 0.000000 0.000000 0.000000
					}
				}
			}
		}
	}
	JOINT RightUpLeg
	{
		OFFSET -6.767048 -9.052170 -0.431982
		CHANNELS 3 Zrotation Yrotation Xrotation
		JOINT RightLeg
		{
			OFFSET -3.829005 -38.256897 -0.885003
			CHANNELS 3 Zrotation Yrotation Xrotation
			JOINT RightFoot
			{
				OFFSET 1.577377 -39.841461 -4.231180
				CHANNELS 3 Zrotation Yrotation Xrotation
				JOINT RightToe
				{
					OFFSET -2.537174 -4.814398 12.334795
					CHANNELS 3 Zrotation Yrotation Xrotation
					End Site
					{
						OFFSET 0.000000 0.000000 0.000000
					}
				}
			}
		}
	}
	JOINT Spine
	{
		OFFSET -0.253288 10.896323 -2.669631
		CHANNELS 3 Zrotation Yrotation Xrotation
		JOINT Spine1
		{
			OFFSET 0.548704 13.518043 0.109247
			CHANNELS 3 Zrotation Yrotation Xrotation
			JOINT Spine2
			{
				OFFSET 0.145701 5.292222 2.542457
				CHANNELS 3 Zrotation Yrotation Xrotation
				JOINT Neck
				{
					OFFSET -0.277840 21.387037 -4.285703
					CHANNELS 3 Zrotation Yrotation Xrotation
					JOINT Head
					{
						OFFSET 0.515184 6.496960 5.134897
						CHANNELS 3 Zrotation Yrotation Xrotation
						End Site
						{
							OFFSET 0.000000 0.000000 0.000000
						}
					}
				}
				JOINT LeftShoulder
				{
					OFFSET 7.884473 12.174932 -3.408961
					CHANNELS 3 Zrotation Yrotation Xrotation
					JOINT LeftArm
					{
						OFFSET 9.097692 3.046888 -0.886815
						CHANNELS 3 Zrotation Yrotation Xrotation
						JOINT LeftForeArm
						{
							OFFSET 25.961220 -1.277207 -2.745643
							CHANNELS 3 Zrotation Yrotation Xrotation
							JOINT LeftHand
							{
								OFFSET 24.923361 0.898606 -0.117091
								CHANNELS 3 Zrotation Yrotation Xrotation
								End Site
								{
									OFFSET 0.000000 0.000000 0.000000
								}
							}
						}
					}
				}
				JOINT RightShoulder
				{
					OFFSET -8.175920 11.883285 -3.861528
					CHANNELS 3 Zrotation Yrotation Xrotation
					JOINT RightArm
					{
						OFFSET -9.601238 3.255117 -0.914307
						CHANNELS 3 Zrotation Yrotation Xrotation
						JOINT RightForeArm
						{
							OFFSET -25.374195 -1.332924 -2.140099
							CHANNELS 3 Zrotation Yrotation Xrotation
							JOINT RightHand
							{
								OFFSET -25.529810 0.777228 -0.555919
								CHANNELS 3 Zrotation Yrotation Xrotation
								End Site
								{
									OFFSET 0.000000 0.000000 0.000000
								}
							}
						}
					}
				}
			}
		}
	}
}
MOTION
Frames: 16
Frame Time: 0.033333
-36.138649 39.725430 9.302420 179.991208 -2.326938 174.766046 0.702868 -6.198753 8.506659 1.337498 -1.671391 4.141087 1.811466 12.169752 -5.612076 nan nan nan -2.670368 -0.291812 5.153146 3.147340 2.618424 7.231711 16.227324 -5.310711 9.349271 nan nan nan 0.650798 3.602023 -3.292374 1.538514 -4.019003 -1.527959 3.247408 2.600447 -1.805987 -4.939637 -3.901789 -15.102173 5.722862 0.658497 -26.832432 23.395071 -15.597279 -14.962321 -21.054300 -31.290001 -13.478076 112.503965 -58.473035 -87.680608 2.112790 -18.508352 -18.030889 -27.788037 12.165325 -15.576838 15.797129 25.170374 -14.318176 -122.673064 58.612595 -88.911747 18.172340 7.125245 -6.090980 
-36.134365 39.702335 9.313000 179.988797 -2.311595 174.585666 0.772478 -5.977491 8.651379 1.241001 -1.615600 4.233726 1.719741 12.095502 -6.096081 nan nan nan -2.714064 -0.164567 5.296358 3.105568 3.040590 7.251802 16.278038 -5.312935 9.460905 nan nan nan 0.605819 3.632748 -3.196349 1.558182 -3.974771 -0.629362 3.184535 2.607813 -2.316823 -4.748823 -3.760926 -15.712344 5.701431 0.358647 -26.447299 23.673261 -15.660368 -14.880853 -20.651639 -31.104371 -13.778466 112.677138 -58.284539 -88.389467 1.844561 -18.841162 -18.122550 -27.662222 12.178232 -15.654081 15.354424 25.024323 -14.400912 -122.542068 58.522945 -89.218921 17.956546 7.361020 -6.082295 
-36.149189 39.694733 9.329780 179.993598 -2.364465 174.475326 0.892675 -5.606048 8.653772 1.175680 -1.575639 4.436208 1.616382 11.784929 -6.556764 nan nan nan -2.738317 -0.144908 5.344515 2.984593 3.338814 7.351515 16.271597 -5.051721 9.522357 nan nan nan 0.611101 3.626756 -3.018383 1.504494 -4.001479 -0.568419 3.113054 2.708453 -2.407192 -4.595631 -3.769375 -15.502689 5.909575 0.154584 -26.480048 23.945138 -16.078928 -14.531475 -20.255660 -30.813882 -14.274979 112.996894 -58.159198 -88.968321 0.664292 -19.223624 -18.063026 -27.637084 12.333816 -15.459895 15.276465 24.551957 -14.686696 -122.857226 58.378368 -89.495021 17.746141 7.579089 -6.187576 
-36.163002 39.691826 9.349148 179.983911 -2.465036 174.404563 0.917609 -5.468688 8.672637 1.161519 -1.621985 4.547126 1.601042 11.627568 -6.871482 nan nan nan -2.817303 -0.121899 5.404653 2.929529 3.622633 7.369187 16.400284 -4.734341 9.561815 nan nan nan 0.492367 3.636098 -2.902872 1.498514 -4.069136 -0.628757 3.081951 2.825261 -2.312854 -4.394844 -3.744241 -15.225358 6.077819 -0.058702 -26.664223 23.775004 -16.299184 -14.677957 -19.794224 -30.963090 -14.336323 112.568875 -58.211177 -88.641617 0.248069 -19.445196 -17.615226 -27.357990 12.379964 -15.347063 15.095852 24.101308 -14.697061 -123.135609 58.065941 -89.566692 17.851517 7.493731 -6.108669 
-36.154964 39.692894 9.368330 179.971675 -2.547172 174.359943 0.913407 -5.407469 8.680262 1.150850 -1.794027 4.619987 1.641682 11.621486 -7.036239 nan nan nan -2.894440 -0.114664 5.447119 2.861213 3.960637 7.372835 16.607384 -4.598049 9.660028 nan nan nan 0.385718 3.628538 -2.801516 1.475400 -4.147123 -0.756732 3.080112 2.855871 -2.108672 -4.368603 -3.759922 -15.101734 6.245884 -0.141959 -26.869076 23.539992 -16.340915 -14.991113 -19.475328 -31.025112 -14.109774 112.151742 -58.317437 -88.346243 1.889836 -19.215156 -17.170909 -27.159234 12.432835 -15.452781 15.013132 23.860038 -14.488384 -123.222918 57.941992 -89.852689 16.971222 7.430200 -6.010355 
-36.135223 39.692520 9.393353 179.963642 -2.607881 174.315381 0.951086 -5.262167 8.650368 1.136377 -1.933758 4.739623 1.613204 11.487802 -7.199617 nan nan nan -2.933816 -0.085838 5.477401 2.757240 4.270755 7.380102 16.795361 -4.459350 9.776884 nan nan nan 0.314972 3.607393 -2.697554 1.426868 -4.212388 -0.826383 3.082572 2.843642 -1.993921 -4.422083 -3.793680 -14.994977 6.425854 -0.167753 -27.094356 23.464021 -16.411406 -15.121231 -19.178847 -30.867026 -14.032765 112.163380 -58.396623 -88.621779 3.140125 -18.870907 -16.790076 -27.055727 12.533206 -15.577961 15.008110 23.776643 -14.398156 -123.258933 58.040012 -90.335784 15.850637 7.532919 -6.079800 
-36.124226 39.670666 9.401631 179.983089 -2.612363 174.201184 1.010831 -5.245989 8.734158 1.088202 -1.904473 4.764625 1.530339 11.367227 -7.284920 nan nan nan -2.949716 0.095556 5.590454 2.772766 4.649679 7.321388 16.872072 -4.390673 9.849912 nan nan nan 0.214236 3.641847 -2.747982 1.472163 -4.201971 0.117232 3.043149 2.828217 -2.433464 -4.275613 -3.627340 -15.593804 6.356374 -0.416483 -26.918339 23.489451 -16.239398 -15.447086 -18.843979 -30.904326 -13.925199 111.959800 -58.322004 -88.938272 3.327728 -18.801858 -16.385802 -26.796401 12.468994 -15.743289 14.555748 23.768902 -14.315149 -122.950817 57.875654 -90.489142 15.733518 7.536334 -5.894556 
-36.120174 39.653301 9.416898 179.974514 -2.639491 174.148123 1.043776 -5.290292 8.749962 1.000083 -1.947657 4.824696 1.492887 11.393700 -7.369723 nan nan nan -3.024131 0.250141 5.661189 2.811828 4.935956 7.254044 16.902642 -4.396079 9.902535 nan nan nan 0.186749 3.619416 -2.760588 1.465506 -4.232762 0.261485 3.028066 2.803194 -2.290225 -4.318445 -3.628136 -15.800353 6.451806 -0.499349 -27.020560 23.505570 -16.163134 -15.595835 -18.693109 -30.792393 -13.847873 111.915627 -58.287026 -89.017014 4.046168 -18.753367 -16.083747 -26.766989 12.446178 -15.856277 14.452138 23.765057 -14.290100 -122.862517 57.827430 -90.446325 15.534666 7.324339 -5.454694 
-36.102436 39.637211 9.432528 179.952029 -2.659664 174.084809 1.077862 -5.344735 8.796293 0.897280 -1.954074 4.839186 1.474938 11.473409 -7.366562 nan nan nan -3.091623 0.317084 5.724860 2.791703 5.251528 7.235070 16.882539 -4.479116 9.904594 nan nan nan 0.167629 3.596642 -2.556964 1.443989 -4.237882 0.164713 3.031155 2.709179 -2.170381 -4.425233 -3.619696 -16.180320 6.616531 -0.605860 -26.922795 23.583417 -15.880788 -15.856366 -18.733677 -30.752814 -13.813665 112.052130 -58.428443 -88.793522 4.811355 -18.650022 -15.993041 -26.812093 12.340062 -15.980442 14.488772 23.835607 -14.319983 -122.880923 57.774680 -90.160831 15.744744 7.117563 -5.003304 
-36.075237 39.629078 9.460681 179.952350 -2.636915 174.058318 1.140768 -5.426540 8.803327 0.794487 -1.888527 4.855290 1.491504 11.579680 -7.330170 nan nan nan -3.084711 0.382180 5.686624 2.734718 5.660619 7.293700 16.752005 -4.635881 9.935760 nan nan nan 0.076819 3.647606 -2.630708 1.456860 -4.258262 0.315303 3.001659 2.721602 -2.051588 -4.424137 -3.667767 -16.219882 6.871667 -0.620317 -27.057942 23.638718 -15.921884 -16.033402 -18.483130 -30.765243 -13.897788 112.040127 -58.468950 -88.616124 5.091782 -18.439059 -15.687624 -26.725261 12.396143 -15.949559 14.429672 23.585729 -14.388742 -122.962738 57.514966 -89.896705 16.442027 6.753184 -4.404508 
-36.074955 39.630314 9.487775 179.982637 -2.659131 173.978174 1.185598 -5.450717 8.819185 0.772434 -1.858771 4.949664 1.425452 11.739068 -7.302234 nan nan nan -3.053685 0.440582 5.720569 2.661620 6.010410 7.353045 16.679605 -4.747275 9.976057 nan nan nan 0.099262 3.677707 -2.436940 1.417146 -4.282207 0.256257 2.964766 2.755690 -2.083778 -4.388492 -3.795223 -16.003674 7.047488 -0.490903 -27.253836 23.730688 -16.101902 -16.073548 -18.274612 -30.685811 -13.989634 112.049073 -58.494349 -88.606204 5.497246 -18.331317 -15.464446 -26.767461 12.519946 -15.925070 14.538199 23.280346 -14.354933 -123.063990 57.384635 -89.964015 16.264637 6.595431 -4.094716 
-36.091991 39.623058 9.527937 179.997763 -2.730474 173.839394 1.199875 -5.460694 8.881277 0.787858 -1.883020 5.102311 1.250673 11.891206 -7.384630 nan nan nan -3.117570 0.476761 5.868247 2.678536 6.263411 7.389016 16.662558 -4.599835 9.874587 nan nan nan 0.167267 3.661002 -2.395492 1.350740 -4.415784 0.256861 2.917500 2.784626 -1.899000 -4.479742 -3.861717 -15.579847 7.203091 -0.407408 -27.741249 23.702908 -16.346658 -16.047880 -17.916825 -30.475557 -14.221268 112.029887 -58.496761 -88.613939 5.631205 -18.367490 -15.071245 -26.769692 12.753225 -15.831200 14.450769 23.121188 -14.534114 -123.123023 57.428313 -90.183196 15.702614 6.561918 -4.050846 
-36.088745 39.632141 9.578662 -179.992715 -2.852768 173.673628 1.217843 -5.509281 8.964176 0.802983 -1.961882 5.292972 1.085234 11.915162 -7.458366 nan nan nan -3.175917 0.525579 6.106273 2.691574 6.358784 7.337162 16.538474 -4.147399 9.738470 nan nan nan 0.228925 3.598257 -2.210775 1.220289 -4.652598 -0.290221 2.828973 2.903539 -1.494531 -4.565669 -3.931049 -14.644809 7.559931 -0.306797 -28.434609 23.673870 -16.852670 -15.812872 -17.548450 -30.189705 -14.422569 112.028797 -58.476827 -88.692444 5.373206 -18.270741 -14.727176 -26.751724 13.083496 -15.632443 14.758141 22.878442 -14.671922 -123.395816 57.502088 -90.371951 15.365847 6.480738 -4.059914 
-36.069817 39.624374 9.628700 -179.947363 -2.989243 173.427678 1.325175 -5.571797 9.099215 0.742644 -2.064941 5.500638 0.859878 11.819193 -7.593480 nan nan nan -3.157346 0.602206 6.432198 2.710072 6.452686 7.254997 16.239571 -3.832657 9.610176 nan nan nan 0.187655 3.600975 -1.983630 1.202934 -4.767182 -0.167885 2.805579 2.915612 -1.574737 -4.523027 -3.919726 -14.311786 7.687765 -0.418812 -28.749599 23.577507 -17.234637 -15.690507 -17.039828 -30.050170 -14.620806 111.983966 -58.426916 -88.888263 4.241181 -18.331533 -14.704226 -26.507748 13.323503 -15.529291 14.510572 22.686312 -14.831803 -123.390479 57.530210 -90.615909 15.207538 6.601177 -4.453963 
-36.056011 39.607864 9.670300 -179.900058 -3.097155 173.209249 1.484310 -5.537973 9.199122 0.657682 -2.105048 5.655266 0.533894 11.634832 -7.718895 nan nan nan -3.131215 0.609402 6.658531 2.667262 6.470795 7.280563 16.151581 -3.649555 9.486138 nan nan nan 0.122265 3.673483 -1.703821 1.239527 -4.710097 0.232946 2.873630 2.811894 -1.916485 -4.485688 -3.942017 -14.385098 7.657585 -0.694670 -28.794361 23.306145 -17.478312 -15.724240 -16.423276 -30.098571 -14.912564 111.934699 -58.425076 -89.131841 2.171483 -18.729255 -14.673232 -26.182301 13.444890 -15.452796 13.763191 22.453623 -15.081918 -123.370785 57.547322 -90.960658 15.187003 6.733354 -4.826434 
-36.031357 39.603851 9.709949 -179.914401 -3.188365 173.067286 1.576643 -5.491341 9.231017 0.593928 -2.174377 5.795519 0.214171 11.528647 -7.824437 nan nan nan -3.169246 0.587814 6.777146 2.583519 6.417123 7.358047 16.310891 -3.408257 9.446177 nan nan nan 0.160256 3.619586 -1.319157 1.147323 -4.806749 -0.054082 2.844111 2.875489 -1.835802 -4.504698 -4.017401 -14.172796 7.876271 -0.883284 -29.015333 23.000784 -17.730994 -15.713456 -15.787587 -29.881208 -15.107056 111.953464 -58.492828 -89.649091 1.074059 -19.029680 -14.451860 -26.029128 13.585242 -15.496478 13.616470 22.288292 -15.145293 -123.612475 57.593225 -91.365950 14.818262 6.590895 -4.648939 
